<?xml version="1.0" encoding="UTF-8"?><svg id="Layer_1" xmlns="http://www.w3.org/2000/svg" viewBox="0 0 846.38 268.8"><defs><style>.cls-1{fill:none;stroke:#000;stroke-linecap:round;stroke-miterlimit:10;stroke-width:9px;}</style></defs><path class="cls-1" d="M305.61,260.79S315.25-1.24,205.74,4.6c-109.5,5.83-94.14,259.7-94.14,259.7"/><path class="cls-1" d="M130.08,167.01s59.42,40.91,150.92-.48"/><path d="M218.36,77.67c7.61,0,14.03,5.46,15.27,12.99,.78,4.74-.65,9.49-3.92,13.03-2.88,3.12-3.19,7.83-.74,11.29,1.35,1.92,2.23,4.07,2.62,6.41,.67,4.09-.29,8.19-2.7,11.55-2.41,3.36-5.99,5.59-10.08,6.26-.84,.14-1.7,.21-2.54,.21-6.68,0-12.75-4.46-14.75-10.84-1.19-3.79-4.69-6.31-8.58-6.31-.34,0-.68,.02-1.02,.06-.58,.07-1.17,.1-1.75,.1-7.61,0-14.03-5.46-15.27-12.99-.67-4.09,.29-8.19,2.7-11.55s5.99-5.59,10.08-6.26c.84-.14,1.7-.21,2.54-.21,1.23,0,2.45,.15,3.64,.44,.71,.17,1.43,.26,2.14,.26,3.47,0,6.72-2.02,8.2-5.3,2.15-4.75,6.49-8.09,11.62-8.94,.84-.14,1.7-.21,2.54-.21m0-9c-1.32,0-2.66,.11-4,.33-8.41,1.38-15.1,6.89-18.36,14.11-1.87-.46-3.8-.7-5.78-.7-1.32,0-2.65,.11-4,.33-13.35,2.19-22.4,14.8-20.2,28.15,1.97,12.01,12.36,20.53,24.15,20.53,.91,0,1.84-.05,2.76-.16,3.19,10.19,12.7,17.15,23.34,17.15,1.32,0,2.66-.11,4-.33,13.35-2.19,22.4-14.8,20.2-28.15-.62-3.78-2.08-7.21-4.14-10.14,4.94-5.36,7.46-12.85,6.19-20.6-1.97-12.01-12.36-20.53-24.15-20.53h0Z"/><path class="cls-1" d="M4.5,13.34s27.25,85.68,86.03,122.66"/><path class="cls-1" d="M319.02,145.09s53.65-25.03,63.69-99.65"/><g><path d="M333.09,180.76h34.95c1.2,0,2.2,.43,3,1.27,.8,.85,1.2,1.88,1.2,3.08s-.4,2.2-1.2,3c-.8,.8-1.8,1.2-3,1.2h-34.95c-1.2,0-2.23-.42-3.07-1.28-.85-.85-1.28-1.88-1.28-3.08s.42-2.2,1.28-3c.85-.8,1.88-1.2,3.07-1.2Zm15.45-21.15c1.3,0,2.37,.45,3.23,1.35,.85,.9,1.27,1.95,1.27,3.15v75.3c0,2.8,.38,4.9,1.12,6.3,.75,1.4,1.73,2.33,2.92,2.78,1.2,.45,2.4,.67,3.6,.67,.8,0,1.52-.12,2.17-.38,.65-.25,1.37-.38,2.18-.38,.9,0,1.67,.35,2.32,1.05,.65,.7,.98,1.6,.98,2.7,0,1.4-.8,2.58-2.4,3.53-1.6,.95-3.5,1.42-5.7,1.42-.9,0-2.25-.08-4.05-.22-1.8-.15-3.65-.7-5.55-1.65-1.9-.95-3.5-2.62-4.8-5.03-1.3-2.4-1.95-5.85-1.95-10.35v-75.75c0-1.2,.45-2.25,1.35-3.15,.9-.9,2-1.35,3.3-1.35Z"/><path d="M459.54,218.71c0,7.6-1.65,14.43-4.95,20.48-3.3,6.05-7.8,10.8-13.5,14.25-5.7,3.45-12.2,5.17-19.5,5.17s-13.53-1.72-19.27-5.17c-5.75-3.45-10.3-8.2-13.65-14.25-3.35-6.05-5.02-12.87-5.02-20.48s1.67-14.55,5.02-20.55c3.35-6,7.9-10.75,13.65-14.25,5.75-3.5,12.17-5.25,19.27-5.25s13.8,1.75,19.5,5.25c5.7,3.5,10.2,8.25,13.5,14.25s4.95,12.85,4.95,20.55Zm-9,0c0-6.1-1.25-11.52-3.75-16.27-2.5-4.75-5.92-8.48-10.27-11.17-4.35-2.7-9.33-4.05-14.93-4.05s-10.3,1.35-14.7,4.05c-4.4,2.7-7.88,6.43-10.43,11.17-2.55,4.75-3.82,10.18-3.82,16.27s1.27,11.5,3.82,16.2c2.55,4.7,6.02,8.43,10.43,11.17,4.4,2.75,9.3,4.12,14.7,4.12s10.58-1.37,14.93-4.12c4.35-2.75,7.77-6.47,10.27-11.17,2.5-4.7,3.75-10.1,3.75-16.2Z"/><path d="M513.24,179.86c6.2,0,11.5,1.63,15.9,4.88,4.4,3.25,7.4,8.08,9,14.47l-2.1,.6,.9-2.7c1.3-3,3.47-5.82,6.53-8.47,3.05-2.65,6.52-4.77,10.42-6.38,3.9-1.6,7.85-2.4,11.85-2.4,6.3,0,11.38,1.35,15.23,4.05,3.85,2.7,6.65,6.33,8.4,10.88,1.75,4.55,2.62,9.67,2.62,15.38v42.45c0,1.2-.43,2.25-1.27,3.15-.85,.9-1.93,1.35-3.23,1.35-1.4,0-2.5-.45-3.3-1.35-.8-.9-1.2-1.95-1.2-3.15v-42c0-4.1-.65-7.85-1.95-11.25-1.3-3.4-3.35-6.1-6.15-8.1-2.8-2-6.55-3-11.25-3-4.2,0-8.15,1-11.85,3-3.7,2-6.73,4.7-9.08,8.1-2.35,3.4-3.53,7.15-3.53,11.25v42c0,1.2-.43,2.25-1.27,3.15-.85,.9-1.93,1.35-3.23,1.35s-2.38-.45-3.22-1.35c-.85-.9-1.28-1.95-1.28-3.15v-42.45c0-4.1-.6-7.77-1.8-11.02-1.2-3.25-3.15-5.87-5.85-7.88-2.7-2-6.35-3-10.95-3-4.1,0-7.98,1-11.62,3-3.65,2-6.6,4.63-8.85,7.88-2.25,3.25-3.38,6.93-3.38,11.02v42.45c0,1.2-.45,2.25-1.35,3.15-.9,.9-1.95,1.35-3.15,1.35-1.4,0-2.53-.45-3.38-1.35-.85-.9-1.27-1.95-1.27-3.15v-67.2c0-1.2,.45-2.25,1.35-3.15s2-1.35,3.3-1.35,2.38,.45,3.23,1.35c.85,.9,1.27,1.95,1.27,3.15v13.95l-4.05,5.55c.3-3,1.28-6,2.92-9,1.65-3,3.83-5.7,6.53-8.1,2.7-2.4,5.78-4.32,9.22-5.78,3.45-1.45,7.07-2.17,10.88-2.17Z"/><path d="M207.74,113.06c-2.1,0-3.67-.47-4.72-1.42-1.05-.95-1.58-2.33-1.58-4.12v-1.5c0-1.8,.57-3.17,1.72-4.12,1.15-.95,2.72-1.43,4.73-1.43,1.9,0,3.38,.48,4.42,1.43,1.05,.95,1.58,2.32,1.58,4.12v1.5c0,1.8-.53,3.18-1.58,4.12-1.05,.95-2.58,1.42-4.58,1.42Zm418.5,137.55c0,1.2-.45,2.25-1.35,3.15-.9,.9-1.95,1.35-3.15,1.35-1.4,0-2.5-.45-3.3-1.35-.8-.9-1.2-1.95-1.2-3.15v-69c0-1.2,.42-2.25,1.28-3.15,.85-.9,1.92-1.35,3.22-1.35s2.37,.45,3.23,1.35c.85,.9,1.27,1.95,1.27,3.15v69Z"/><path d="M695.64,248.71c1.2,0,2.22,.43,3.08,1.28,.85,.85,1.28,1.83,1.28,2.92,0,1.2-.43,2.2-1.28,3-.85,.8-1.88,1.2-3.08,1.2h-48.75c-1.4,0-2.47-.5-3.22-1.5-.75-1-1.12-1.95-1.12-2.85,0-.6,.1-1.17,.3-1.73,.2-.55,.5-1.12,.9-1.72l45.6-62.85,.45,1.5h-39.15c-1.2,0-2.23-.42-3.07-1.27-.85-.85-1.28-1.88-1.28-3.08,0-1.1,.42-2.07,1.28-2.92,.85-.85,1.88-1.28,3.07-1.28h45.9c1.2,0,2.22,.45,3.08,1.35,.85,.9,1.27,2,1.27,3.3,0,.5-.1,1-.3,1.5-.2,.5-.5,1.05-.9,1.65l-45.15,62.25-1.8-.75h42.9Z"/><path d="M752.64,258.61c-7.7,0-14.5-1.65-20.4-4.95-5.9-3.3-10.5-7.9-13.8-13.8-3.3-5.9-4.95-12.8-4.95-20.7,0-8.5,1.67-15.75,5.03-21.75,3.35-6,7.7-10.62,13.05-13.88,5.35-3.25,11.03-4.88,17.03-4.88,4.4,0,8.67,.78,12.83,2.33,4.15,1.55,7.85,3.85,11.1,6.9,3.25,3.05,5.85,6.78,7.8,11.17,1.95,4.4,3.02,9.5,3.23,15.3-.1,1.2-.6,2.23-1.5,3.08-.9,.85-1.95,1.27-3.15,1.27h-60.15l-1.8-8.1h59.1l-1.95,1.8v-3c-.5-4.7-2.05-8.67-4.65-11.92-2.6-3.25-5.73-5.75-9.38-7.5-3.65-1.75-7.48-2.62-11.47-2.62-3,0-6.08,.6-9.23,1.8-3.15,1.2-6,3.08-8.55,5.62s-4.63,5.8-6.22,9.75c-1.6,3.95-2.4,8.62-2.4,14.03,0,5.9,1.2,11.25,3.6,16.05,2.4,4.8,5.87,8.6,10.42,11.4,4.55,2.8,9.97,4.2,16.27,4.2,3.5,0,6.62-.5,9.38-1.5,2.75-1,5.2-2.32,7.35-3.97,2.15-1.65,3.92-3.38,5.33-5.17,1.1-.9,2.15-1.35,3.15-1.35,1.1,0,2.03,.4,2.78,1.2,.75,.8,1.12,1.7,1.12,2.7,0,1.2-.5,2.25-1.5,3.15-3,3.6-6.9,6.73-11.7,9.38s-10.05,3.97-15.75,3.97Z"/><path d="M807.23,257.11c-1.4,0-2.53-.45-3.38-1.35-.85-.9-1.27-1.95-1.27-3.15v-67.2c0-1.2,.45-2.25,1.35-3.15s2-1.35,3.3-1.35,2.38,.45,3.23,1.35c.85,.9,1.27,1.95,1.27,3.15v22.5l-2.25,.45c.3-3.5,1.17-6.97,2.62-10.42,1.45-3.45,3.42-6.62,5.93-9.53,2.5-2.9,5.47-5.25,8.92-7.05s7.32-2.7,11.62-2.7c1.8,0,3.55,.38,5.25,1.12,1.7,.75,2.55,1.98,2.55,3.67,0,1.5-.4,2.65-1.2,3.45-.8,.8-1.75,1.2-2.85,1.2-.9,0-1.88-.25-2.92-.75-1.05-.5-2.43-.75-4.12-.75-2.8,0-5.6,.83-8.4,2.47-2.8,1.65-5.35,3.88-7.65,6.68-2.3,2.8-4.12,5.92-5.47,9.38-1.35,3.45-2.03,6.93-2.03,10.42v37.05c0,1.2-.45,2.25-1.35,3.15-.9,.9-1.95,1.35-3.15,1.35Z"/></g></svg>