<?xml version="1.0" encoding="utf-8"?>
<!-- Generator: Adobe Illustrator 26.3.1, SVG Export Plug-In . SVG Version: 6.00 Build 0)  -->
<svg version="1.1" id="Capa_1" xmlns="http://www.w3.org/2000/svg" xmlns:xlink="http://www.w3.org/1999/xlink" x="0px" y="0px"
	 viewBox="0 0 490 490" style="enable-background:new 0 0 490 490;" xml:space="preserve">
<style type="text/css">
	.st0{fill:#FFFFFF;}
</style>
<path class="st0" d="M245,0C109.7,0,0,109.7,0,245s109.7,245,245,245s245-109.7,245-245S380.3,0,245,0z M31.4,260.3h52.5
	c1.2,25.4,5,48.7,11,69.6H48.2C38.9,308.3,33.1,284.9,31.4,260.3z M320.6,229.7c-1.2-24.6-4.1-47.9-8-69.6h50.2
	c6.7,20.5,11.3,43.7,12.6,69.6L320.6,229.7L320.6,229.7z M206.4,329.9c-4.3-23.9-6.4-47.2-6.8-69.6h90.9
	c-0.4,22.4-2.5,45.7-6.8,69.6H206.4z M276.9,360.5c-7.2,27.6-17.6,55.7-32,83.8c-14.4-28.2-24.8-56.3-31.9-83.8H276.9z M200,229.7
	c1.2-24.8,4.3-48.1,8.5-69.6h73.1c4.2,21.5,7.3,44.8,8.5,69.6L200,229.7L200,229.7z M215.3,129.5c9.6-37.4,21.4-66.8,29.7-85
	c8.3,18.1,20.1,47.6,29.7,85H215.3z M306.1,129.5c-9.8-40.5-22.3-73-31.6-94c11.6,8.2,50,38.7,76.2,94H306.1z M215.6,35.5
	c-9.3,21-21.9,53.5-31.6,94h-44.6C165.5,74.1,204,43.7,215.6,35.5z M177.4,160.1c-3.9,21.6-6.9,45-8,69.6h-54.8
	c1.4-25.9,6-49,12.7-69.6H177.4z M84,229.7H31.4c1.7-24.5,7.5-48,16.8-69.6h46.9C89.1,181,85.2,204.2,84,229.7z M114.6,260.3H169
	c0.3,22.5,2.2,45.7,6.2,69.6h-48C120.5,309.3,115.9,286.1,114.6,260.3z M181.6,360.5c7.5,31.2,18.7,63.1,34.7,95.1
	c-10.8-7.8-50.3-38.8-77-95.1H181.6z M273.6,455.6c16.1-32,27.3-63.9,34.8-95.1H351C324.3,417.1,284.7,447.8,273.6,455.6z
	 M314.8,329.9c4-23.9,5.9-47.1,6.2-69.6h54.4c-1.3,25.8-5.8,49-12.5,69.6H314.8z M406.1,260.3h52.5c-1.7,24.5-7.5,48-16.8,69.6
	h-46.7C401,309,404.9,285.7,406.1,260.3z M406,229.7c-1.2-25.4-5.1-48.7-11.2-69.6h46.9c9.4,21.6,15.1,45,16.8,69.6L406,229.7
	L406,229.7z M425.3,129.5h-41.2c-13.7-33-31.5-59.1-48.3-78.4C372.5,68.3,403.5,95.6,425.3,129.5z M154.3,51.1
	c-16.8,19.4-34.6,45.5-48.3,78.4H64.7C86.5,95.6,117.5,68.3,154.3,51.1z M64.7,360.5h41c13.5,32.6,31.1,58.6,47.8,78
	C117.1,421.3,86.3,394.1,64.7,360.5z M336.6,438.5c16.7-19.4,34.3-45.4,47.7-78h41C403.7,394.1,372.9,421.3,336.6,438.5z"/>
</svg>
